<?xml version="1.0" encoding="utf-8"?>
<svg viewBox="167.573 169.079 158.687 162.328" xmlns="http://www.w3.org/2000/svg">
  <g data-item-type="image" data-item="Image" data-logo-item="" id="logo__item--logo_0" class="logo__item" transform="matrix(1, 0, 0, 1, -406.968262, -128.226852)">
    <g class="logo__item__inner" transform="translate(584.4853643284521 314.5) scale(0.942655122727768 0.942655122727768) rotate(0 0 0)">
      <g>
        <path fill="none" d="M85.4,74.4C85.4,74.4,85.4,74.4,85.4,74.4C85.4,74.5,85.4,74.5,85.4,74.4z" data-part-id="logo__item--logo_0__0"/>
        <path fill="none" d="M85.4,74.4c1.8-0.5,3.4-1.5,4.6-2.3c-1.2-7.9-6.5-14.8-14.3-17.7c-0.7-0.3-1.4-0.6-2.2-0.8   c-2.7-0.7-5.4-0.9-8.1-0.6c-1,0.1-2,0.3-3,0.5c-0.9,0.2-1.8,0.5-2.7,0.9c-0.2,0.1-0.4,0.2-0.6,0.2c0.2,0,0.4,0,0.6,0   c0.7-0.1,1.5-0.1,2.2-0.1c1,0,2,0.1,3.1,0.3c0.8,0.1,1.6,0.3,2.4,0.5c1.9,0.5,3.7,1.3,5.4,2.2C79.4,61.1,84,67.3,85.4,74.4   C85.4,74.4,85.4,74.4,85.4,74.4z" data-part-id="logo__item--logo_0__1"/>
        <path fill="none" d="M81.2,75c0.1,0,0.1,0,0.2,0C81.3,75,81.3,75,81.2,75z" data-part-id="logo__item--logo_0__2"/>
        <path fill="none" d="M86.8,87.3c-0.7,0.2-1.4,0.4-2.1,0.5C85.4,87.7,86,87.6,86.8,87.3z" data-part-id="logo__item--logo_0__3"/>
        <path fill="none" d="M111.2,55.8c1.6-6.2-2.1-12.6-8.3-14.2c-2.8-0.7-5.3-0.2-7.1,0.5L78.1,52.4c0,0,0,0,0,0   c7.6,3.4,12.7,10.5,14,18.4l15.2-9.1C108.8,60.6,110.5,58.7,111.2,55.8z" data-part-id="logo__item--logo_0__4"/>
        <path fill="none" d="M79.2,74.7c0.7,0.2,1.3,0.3,1.9,0.3c0,0-1.7-5-3.9-6.8c-0.1-0.3-0.6-0.7-0.6-0.7c-1.5-1.8-3.4-3.3-5.8-3.9   c-0.1,0-0.2,0-0.3,0C70.6,68.7,74,73.3,79.2,74.7z" data-part-id="logo__item--logo_0__5"/>
        <path fill="none" d="M84.9,74.6c0,0-0.1,0-0.3,0.1c0,0,0,0,0,0C84.7,74.7,84.8,74.6,84.9,74.6z" data-part-id="logo__item--logo_0__6"/>
        <path fill="none" d="M59.2,106.1c-2.7,0.2-5.5,0.1-8.3-0.7c-3.5-0.9-6.6-2.5-9.2-4.6c-7.3-5.9-10.9-15.7-8.4-25.4   c0.1-0.5,0.3-1,0.5-1.5c0.7-2.2,1.7-4.2,3-6c-2.6,2-4.6,4.5-6,7.2c-0.8,1.5-1.5,3-1.9,4.7c-0.2,0.9-0.4,1.7-0.5,2.6   c-0.3,2.4-0.3,4.7,0.1,7c1.4,8.2,7.4,15.2,15.9,17.7c0.2,0.1,0.4,0.1,0.6,0.2C49.7,108.4,54.7,108,59.2,106.1z" data-part-id="logo__item--logo_0__7"/>
        <path fill="none" d="M57.9,67.5l1.9-1.1L57.9,67.5l-14.1,8.1c-1.8,1.2-4.1,3.2-5,6.8c0,0.1,0,0.3-0.1,0.4c-0.4,1.8-0.4,3.7,0.1,5.4   c1,4,4,7.3,8.3,8.4c4.3,1.1,7.8-0.6,10.2-2.2l14.5-8.6C64.3,82.3,59.2,75.4,57.9,67.5z" data-part-id="logo__item--logo_0__8"/>
        <path fill="none" d="M83,83.5C73.4,81,66.6,73.2,65,64c-0.2,0.1-0.4,0.1-0.6,0.2l-4,2.3c1.1,8,6.5,15.1,14.4,18   c0.5,0.2,1.1,0.4,1.7,0.5c0.2,0,0.3,0.1,0.5,0.2c4.8,1.3,9.8,0.8,14.3-1.1C88.5,84.4,85.8,84.2,83,83.5z" data-part-id="logo__item--logo_0__9"/>
        <line fill="none" stroke="#00A896" stroke-width="0" stroke-linecap="round" stroke-linejoin="round" x1="92" y1="32" x2="92" y2="32" data-part-id="logo__item--logo_0__10"/>
        <path fill="#00A896" d="M85.4,74.4C85.4,74.4,85.4,74.4,85.4,74.4C85.4,74.4,85.4,74.4,85.4,74.4z" data-part-id="logo__item--logo_0__11"/>
        <path fill="#00A896" d="M89.7,86.7c0,0,0.1,0,0.1,0C89.7,86.6,89.7,86.7,89.7,86.7C89.7,86.7,89.7,86.7,89.7,86.7z" data-part-id="logo__item--logo_0__12"/>
        <path fill="#00A896" d="M78.1,52.4l17.8-10.3c1.7-0.7,4.2-1.2,7.1-0.5c6.2,1.6,9.9,8,8.3,14.2c-0.7,2.8-2.5,4.8-3.9,6l-15.2,9.1   L90,72.1c-1.2,0.8-2.8,1.8-4.6,2.3c0,0,0,0.1,0,0c-0.2,0.1-0.3,0.1-0.5,0.2c-0.1,0-0.2,0-0.2,0.1c0,0,0,0,0,0   c-0.5,0.2-1.8,0.4-3.2,0.3c-0.1,0-0.2,0-0.3,0c0,0-0.1,0-0.1,0c0,0-2,0.1,0,0v0c-1,0-1.2-0.1-1.9-0.3c-5.2-1.4-8.5-6-8.6-11.1   c-2.4-0.6-4.6-0.2-6.2,0.3c-0.2,0.1-0.4,0.1-0.6,0.2l-4,2.3l-1.9,1.1c1.3,7.9,6.5,14.8,14,18.3l0,0c1.3,0.6,2.7,1.1,4.1,1.5   c2.6,0.7,5.2,0.8,7.7,0.7c0.3,0,0.7-0.1,1-0.1c0.7-0.1,1.4-0.3,2.1-0.5c0.7-0.2,1.6-0.4,2.8-0.7c0,0-0.1,0,0,0c0,0,0.1,0,0.2-0.1   c2.2-0.9,4.3-1.7,6.2-3l18.5-11.1c3.1-2.3,5.4-5.4,7.4-9v-3.7c-1.3,4.2-3.9,7.9-7.6,10.8c0-0.1,0.1-0.1,0.1-0.2   c-0.1,0.1-0.1,0.1-0.2,0.2c1.5-2.2,2.8-4.7,3.5-7.5c3.4-13.2-4.4-26.6-17.6-30.1c-2.1-0.5-4.2-1-6.2-1c-0.7,0-1.4-0.1-2-0.1   c0,0,0,0,0,0c2.8-1,5.8-1.6,8.8-1.6c1.8,0,3.7,0.3,5.5,0.8c7.7,2,13.4,8,15.7,15.1v-4c0-0.1,0-0.2,0-0.3c0-8.7,0-17.4,0-26.1   c-15-5-31.5-7.5-47.5-7.5c-16,0-31.5,2.5-47.5,7.5c0,14.2,0,35.1,0,49.9c2-1.1,2.5-2.1,3.9-3l6.1-3.5v-36c13-3.3,24.8-5,37.5-5   c12.7,0,25.5,1.7,37.5,5v8.3c-2-1-3.7-1.9-5.8-2.4c-5.6-1.5-11.2-0.8-16.1,1.4L68.8,42.7c-3.3,2.1-6.2,5.1-8.2,8.7   c1-0.3,1.9-0.5,2.9-0.7c0.7-0.1,1.4-0.2,2.2-0.3c1-0.1,2.1-0.2,3.1-0.1c1.7,0,3.5,0.3,5.3,0.7C75.5,51.4,76.9,51.8,78.1,52.4z    M76.9,85.3c-0.2-0.1-0.4-0.1-0.5-0.2c-0.6-0.2-1.1-0.3-1.7-0.5c-7.9-2.9-13.3-10-14.4-18l4-2.3c0.2-0.1,0.4-0.1,0.6-0.2   c1.7,9.2,8.4,17,18,19.5c2.8,0.7,5.6,0.9,8.3,0.7C86.7,86.1,81.7,86.5,76.9,85.3z" data-part-id="logo__item--logo_0__13"/>
        <path fill="#402312" d="M122,80.8c0-3.4,0-6.9,0-10.3c-2,2.2-3.5,4.1-5.6,5.7l-4.4,2.6v0.3l0.1,1.6c-0.1,19.7-15.3,37.7-37.3,44.7   c-10-3.1-18.5-8.6-25-15.4c5.1,0,10.1-1.5,14.2-4.4l18.6-11.1c2.4-1.8,5.4-5.2,7-7.8c0.1,0,0.1,0,0,0c0,0,0,0,0,0c-0.1,0-0.1,0,0,0   c-1.2,0.2-2.1,0.5-2.8,0.7c-0.8,0.2-1.4,0.4-2.1,0.5c-0.3,0-0.7,0.1-1,0.1c-2.5,0.2-5.1,0-7.7-0.7c-1.4-0.4-2.8-0.9-4.1-1.5l0,0   l-14.5,8.6c-2.4,1.6-5.9,3.4-10.2,2.2c-4.2-1.1-7.3-4.5-8.3-8.4c-0.4-1.7-0.5-3.5-0.1-5.4c0-0.1,0-0.3,0.1-0.4   c0.9-3.5,3.2-5.6,5-6.8l14.1-8.1l1.9-1.1l4-2.3c0.2-0.1,0.4-0.1,0.6-0.2c1.6-0.6,3.8-0.9,6.2-0.3c0.1,0,0.2,0,0.3,0   c2.4,0.6,4.3,2.1,5.8,3.9c0,0,0.4,0.4,0.5,0.7C79.4,70,81,75,81,75v0c0,0,0.1,0,0.1,0c0.1,0,0.2,0,0.2,0c1.4,0.1,2.7-0.2,3.2-0.3   c0.2,0,0.3-0.1,0.3-0.1c0.2-0.1,0.4-0.1,0.5-0.2c-1.4-7.1-6-13.4-12.5-16.9c-1.7-0.9-3.4-1.7-5.4-2.2c-0.8-0.2-1.6-0.4-2.4-0.5   c-1-0.2-2.1-0.2-3.1-0.3c-0.7,0-1.5,0-2.2,0.1c-0.2,0-0.4,0-0.6,0c0.2-0.1,0.4-0.2,0.6-0.2c0.9-0.3,1.8-0.6,2.7-0.9   c1-0.2,2-0.4,3-0.5c2.7-0.3,5.4-0.1,8.1,0.6c0.8,0.2,1.5,0.5,2.2,0.8c7.8,2.9,13.1,9.8,14.3,17.7l2.1-1.3c-1.3-8-6.4-15-14-18.4   c0,0,0,0,0,0c-1.3-0.6-2.6-1-4-1.4c-1.8-0.5-3.5-0.7-5.3-0.7c-1,0-2.1,0-3.1,0.1c-0.7,0.1-1.5,0.1-2.2,0.3c-1,0.2-2,0.4-2.9,0.7   c-0.9,0.3-1.8,0.6-2.7,1L36.8,64.7c-5,3.2-8.9,8.2-10.5,14.4c-1.8,6.7-0.5,13.5,2.8,19c1.1,1.8,2.4,3.4,3.9,4.9   c7.7,15.5,23.1,27.6,41.8,32.6C101.8,128.4,121.8,106.5,122,80.8L122,80.8z M44.3,107c-8.5-2.5-14.4-9.5-15.9-17.7   c-0.4-2.3-0.5-4.6-0.1-7c0.1-0.9,0.3-1.7,0.5-2.6c0.4-1.6,1.1-3.2,1.9-4.7c1.5-2.8,3.5-5.2,6-7.2c-1.2,1.8-2.2,3.8-3,6   c-0.2,0.5-0.3,1-0.5,1.5c-2.5,9.7,1.1,19.5,8.4,25.4c2.6,2.1,5.7,3.7,9.2,4.6c2.8,0.7,5.6,0.9,8.3,0.7c-4.5,1.9-9.5,2.3-14.3,1.1   C44.7,107.1,44.5,107.1,44.3,107z" data-part-id="logo__item--logo_0__14"/>
        <path fill="#402312" d="M81.1,75C78.9,75.1,81.1,75,81.1,75L81.1,75z" data-part-id="logo__item--logo_0__15"/>
        <path fill="#402312" d="M89.8,86.6C90.2,86.5,90,86.6,89.8,86.6c-0.1,0-0.1,0-0.1,0C89.7,86.7,89.7,86.6,89.8,86.6z" data-part-id="logo__item--logo_0__16"/>
      </g>
    </g>
  </g>
  <g data-item-type="shape" data-item="Shape" data-logo-item="" id="logo__item--shape_1" class="logo__item" transform="matrix(1, 0, 0, 1, -406.968262, -128.226852)">
    <g class="logo__item__inner" transform="translate(567.7585678100586 285.9931335449219) scale(1.7750806148704064 1.7750806148704064) rotate(15.29588446042679 44.24144435375729 45.5068676967449)">
      <g>
        <path fill="#402312" d="M76.1,88C69.4,92.9,61,95.7,52.5,96c-8.5,0.3-17.2-2-24.6-6.5c-7.4-4.5-13.4-11.3-17.3-19.1   c-3.8-7.9-5.2-16.9-4.1-25.6C7.7,36,11.3,27.7,17,21c5.7-6.6,13.2-11.7,21.5-14.1C46.8,4.4,55.8,4.4,64,6.8   c8.2,2.4,15.6,7.2,20.8,13.7c-6.1-5.7-13.5-9.7-21.4-11.3C55.5,7.5,47.2,8,39.7,10.6c-15.1,5.1-26.5,19.1-28.3,34.8   c-1,7.8,0.2,15.8,3.4,23c3.2,7.2,8.5,13.4,15.1,17.9c6.6,4.4,14.4,7,22.5,7.3C60.6,93.9,68.8,92,76.1,88z" data-part-id="logo__item--shape_1__0"/>
        <path fill="#00A896" d="M53.4,11.6c7.4-0.5,14.9,1.3,21.5,5.1c6.5,3.8,12,9.5,15.4,16.4c3.5,6.8,4.9,14.7,4.1,22.4   c-0.8,7.7-4,15.1-8.8,21.2c-4.9,6-11.6,10.6-18.9,12.9c-7.4,2.3-15.4,2.6-22.8,0.6c-7.4-2-14.1-6.2-19.2-11.8   c-5-5.7-8.3-12.7-9.3-20c1.9,7.1,5.7,13.6,10.9,18.5c5.1,5,11.6,8.4,18.4,10c13.7,3.2,28.8-2,37.5-13c4.4-5.3,7.3-12,8.1-18.9   c0.9-6.9-0.2-14.1-3-20.5c-2.9-6.4-7.6-12-13.5-16C67.9,14.4,60.8,12,53.4,11.6z" data-part-id="logo__item--shape_1__1"/>
      </g>
    </g>
  </g>
</svg>